<svg width="11" height="8" viewBox="0 0 11 8" fill="none"
    xmlns="http://www.w3.org/2000/svg">
    <path fill-rule="evenodd" clip-rule="evenodd" d="M10.0738 0H0.926105C0.600053 0 0.341303 0.243068 0.292297 0.556051L5.49997 3.9871L10.7076 0.556051C10.6586 0.243068 10.3999 0 10.0738 0ZM0.27272 5.87529V1.32495L3.79721 3.64717L0.27272 5.87529ZM10.7273 5.87529L7.20279 3.64717L10.7273 1.32495V5.87529ZM5.38605 4.60963L6.31063 4.00065L10.4127 6.59469C10.3624 6.90506 10.105 7.14617 9.78023 7.14617H0.6325C0.307756 7.14617 0.0503125 6.90506 0 6.59469L4.1021 4L5.02668 4.60963C5.08156 4.64557 5.14364 4.66321 5.20637 4.66321C5.26909 4.66321 5.33117 4.64557 5.38605 4.60963Z" fill="#FF7B5B"/>
</svg>
