<svg width="41" height="41" viewBox="0 0 41 41" fill="none"
    xmlns="http://www.w3.org/2000/svg">
    <path d="M20.8375 15.2125C21.95 15.2125 23.0376 15.5424 23.9626 16.1605C24.8876 16.7786 25.6086 17.6571 26.0343 18.6849C26.4601 19.7127 26.5715 20.8437 26.3544 21.9349C26.1374 23.026 25.6016 24.0283 24.815 24.815C24.0283 25.6016 23.026 26.1374 21.9349 26.3544C20.8437 26.5715 19.7127 26.4601 18.6849 26.0343C17.6571 25.6086 16.7786 24.8876 16.1605 23.9626C15.5424 23.0376 15.2125 21.95 15.2125 20.8375C15.2144 19.3462 15.8076 17.9166 16.8621 16.8621C17.9166 15.8076 19.3462 15.2144 20.8375 15.2125ZM20.8375 12.4C19.1687 12.4 17.5374 12.8948 16.1499 13.822C14.7623 14.7491 13.6809 16.0669 13.0423 17.6086C12.4037 19.1504 12.2366 20.8469 12.5621 22.4836C12.8877 24.1203 13.6913 25.6237 14.8713 26.8037C16.0513 27.9837 17.5547 28.7873 19.1914 29.1129C20.8281 29.4384 22.5246 29.2713 24.0664 28.6327C25.6081 27.9941 26.9259 26.9127 27.853 25.5251C28.7801 24.1376 29.275 22.5063 29.275 20.8375C29.275 18.5997 28.3861 16.4536 26.8037 14.8713C25.2214 13.2889 23.0753 12.4 20.8375 12.4Z" fill="white"/>
    <path d="M5.58531 7.58078L7.57375 5.59094L12.5041 10.5212L10.5156 12.5097L5.58531 7.58078Z" fill="white"/>
    <path d="M0.8125 19.1008H7.84375V21.9133H0.8125V19.1008Z" fill="white"/>
    <path d="M5.58531 33.4333L10.5156 28.503L12.5041 30.4928L7.57375 35.4217L5.58531 33.4333Z" fill="white"/>
    <path d="M19.0938 33.1633H21.9062V40.1945H19.0938V33.1633Z" fill="white"/>
    <path d="M28.4973 30.4928L30.4858 28.503L35.4161 33.4333L33.4277 35.4217L28.4973 30.4928Z" fill="white"/>
    <path d="M33.1562 19.1008H40.1875V21.9133H33.1562V19.1008Z" fill="white"/>
    <path d="M28.4973 10.5212L33.4277 5.59094L35.4161 7.58078L30.4858 12.5097L28.4973 10.5212Z" fill="white"/>
    <path d="M19.0938 0.81953H21.9062V7.85078H19.0938V0.81953Z" fill="white"/>
</svg>
